# xmcd
#
# Track frame offsets: 
#        150
#        9675
#        23252
#        35987
#        59149
#        79648
#        105305
#        122097
#        142296
#
# Disc length: 2263 seconds
#
# Revision: 0
# Processed by: cddbd v1.5.1PL2 Copyright (c) Steve Scherf et al.
# Submitted via: ExactAudioCopy v0.95a4
#
DISCID=7708d509
DTITLE=B. B. King - Hammersmith Odeon - Oct 86
DYEAR=1986
DGENRE=Blues
TTITLE0=Intro
TTITLE1=Instumental
TTITLE2=Outside Help
TTITLE3=Let the Good Times Roll
TTITLE4=Don't Answer the Door
TTITLE5=Paying the Cost to Be the Boss
TTITLE6=The Thrill is Gone
TTITLE7=Everyday I Have the Blues
TTITLE8=How Blue Can You Get
EXTD=
EXTT0=
EXTT1=
EXTT2=
EXTT3=
EXTT4=
EXTT5=
EXTT6=
EXTT7=
EXTT8=
PLAYORDER=
